<?xml version="1.0" encoding="UTF-8"?>
<svg width="435px" height="56px" viewBox="0 0 435 56" version="1.1" xmlns="http://www.w3.org/2000/svg" xmlns:xlink="http://www.w3.org/1999/xlink">
    <!-- Generator: Sketch 41.2 (35397) - http://www.bohemiancoding.com/sketch -->
    <title>bsk-logo-landscape-rev</title>
    <desc>Created with Sketch.</desc>
    <defs></defs>
    <g id="Symbols" stroke="none" stroke-width="1" fill="none" fill-rule="evenodd">
        <g id="bsk-logo-landscape-rev">
            <path d="M101.368076,17.3148203 L108.357739,17.3148203 C109.564941,17.3148203 110.681586,17.4174309 111.707707,17.6226552 C112.733829,17.8278795 113.621109,18.1538191 114.369574,18.6004837 C115.118039,19.0471484 115.703523,19.6447043 116.126043,20.3931693 C116.548564,21.1416344 116.759821,22.059094 116.759821,23.1455755 C116.759821,24.2803452 116.42181,25.3305949 115.745777,26.2963563 C115.069744,27.2621177 114.031566,27.9260687 112.631212,28.2882292 L112.631212,28.4330927 C114.369582,28.7228211 115.691449,29.3324489 116.59685,30.2619942 C117.502251,31.1915396 117.954945,32.4530464 117.954945,34.0465527 C117.954945,35.2296105 117.731616,36.2557165 117.284951,37.1249018 C116.838287,37.994087 116.210551,38.7183972 115.401726,39.2978541 C114.592901,39.8773109 113.639226,40.3058611 112.540672,40.5835175 C111.442119,40.8611739 110.240971,41 108.937193,41 L101.368076,41 L101.368076,17.3148203 Z M107.959365,27.1293214 C109.625303,27.1293214 110.820415,26.8275255 111.544736,26.2239246 C112.269057,25.6203237 112.631212,24.7632233 112.631212,23.6525977 C112.631212,22.5661162 112.250949,21.7814468 111.490412,21.2985661 C110.729875,20.8156854 109.589086,20.5742487 108.068012,20.5742487 L105.569117,20.5742487 L105.569117,27.1293214 L107.959365,27.1293214 Z M108.502603,37.7405716 C110.240973,37.7405716 111.568875,37.414632 112.486348,36.7627431 C113.403822,36.1108541 113.862552,35.1088917 113.862552,33.7568258 C113.862552,31.3424223 112.07592,30.1352387 108.502603,30.1352387 L105.569117,30.1352387 L105.569117,37.7405716 L108.502603,37.7405716 Z M136.147383,17.3148203 L140.312208,17.3148203 L140.312208,37.4508446 L151.430481,37.4508446 L151.430481,41 L136.147383,41 L136.147383,17.3148203 Z M176.467718,41.4345905 C175.091508,41.4345905 173.830002,41.1509023 172.68316,40.5835175 C171.536318,40.0161327 170.558499,39.1952478 169.749674,38.1208382 C168.940849,37.0464287 168.307078,35.7487063 167.848341,34.2276321 C167.389604,32.7065579 167.16024,30.9802853 167.16024,29.0487625 C167.16024,27.1413838 167.389604,25.4332189 167.848341,23.9242168 C168.307078,22.4152146 168.940849,21.1416359 169.749674,20.1034424 C170.558499,19.0652489 171.536318,18.2685077 172.68316,17.7131949 C173.830002,17.1578821 175.091508,16.8802298 176.467718,16.8802298 C177.843928,16.8802298 179.105435,17.1578821 180.252277,17.7131949 C181.399119,18.2685077 182.376937,19.0652489 183.185763,20.1034424 C183.994588,21.1416359 184.628359,22.4152146 185.087096,23.9242168 C185.545832,25.4332189 185.775197,27.1413838 185.775197,29.0487625 C185.775197,30.9802853 185.545832,32.7065579 185.087096,34.2276321 C184.628359,35.7487063 183.994588,37.0464287 183.185763,38.1208382 C182.376937,39.1952478 181.399119,40.0161327 180.252277,40.5835175 C179.105435,41.1509023 177.843928,41.4345905 176.467718,41.4345905 Z M176.467718,37.7767875 C177.216184,37.7767875 177.898242,37.5715663 178.513915,37.1611177 C179.129588,36.7506691 179.654713,36.165185 180.089306,35.4046479 C180.523898,34.6441108 180.86191,33.7266513 181.10335,32.6522417 C181.34479,31.5778322 181.465509,30.3766844 181.465509,29.0487625 C181.465509,26.3929187 181.012815,24.3105269 180.107413,22.8015248 C179.202012,21.2925226 177.988793,20.5380328 176.467718,20.5380328 C174.946644,20.5380328 173.733425,21.2925226 172.828023,22.8015248 C171.922622,24.3105269 171.469928,26.3929187 171.469928,29.0487625 C171.469928,30.3766844 171.584611,31.5778322 171.813979,32.6522417 C172.043347,33.7266513 172.375323,34.6441108 172.809915,35.4046479 C173.244508,36.165185 173.769633,36.7506691 174.385306,37.1611177 C175.000979,37.5715663 175.695109,37.7767875 176.467718,37.7767875 Z M201.577388,29.2298419 C201.577388,27.2983191 201.85504,25.5660106 202.410353,24.0328644 C202.965666,22.4997182 203.732227,21.2019958 204.710061,20.1396582 C205.687894,19.0773207 206.84679,18.2685077 208.186784,17.7131949 C209.526778,17.1578821 210.981435,16.8802298 212.550797,16.8802298 C213.999439,16.8802298 215.291125,17.1820257 216.425895,17.7856266 C217.560665,18.3892275 218.51434,19.0773222 219.286949,19.8499313 L216.932917,22.457474 C216.35346,21.8780172 215.707617,21.4132515 214.995368,21.0631629 C214.283119,20.7130744 213.46827,20.5380328 212.550797,20.5380328 C211.560891,20.5380328 210.655504,20.7372181 209.834607,21.1355947 C209.013709,21.5339713 208.313543,22.1013476 207.734086,22.8377406 C207.154629,23.5741337 206.701935,24.4734855 206.375991,25.535823 C206.050046,26.5981606 205.887077,27.7932724 205.887077,29.1211943 C205.887077,30.4732602 206.050046,31.6864798 206.375991,32.7608893 C206.701935,33.8352989 207.160665,34.7406866 207.752194,35.4770797 C208.343723,36.2134727 209.055961,36.780849 209.88893,37.1792256 C210.7219,37.5776022 211.645395,37.7767875 212.659444,37.7767875 C213.625206,37.7767875 214.488342,37.5715663 215.248879,37.1611177 C216.009416,36.7506691 216.727691,36.1712209 217.403724,35.4227558 L219.721539,37.9940827 C218.755778,39.1047083 217.669313,39.9557728 216.462111,40.5473016 C215.254909,41.1388305 213.902864,41.4345905 212.405933,41.4345905 C210.884859,41.4345905 209.466418,41.1690101 208.150569,40.6378413 C206.834719,40.1066725 205.687894,39.3220032 204.710061,38.2838097 C203.732227,37.2456162 202.965666,35.9660015 202.410353,34.4449273 C201.85504,32.9238531 201.577388,31.1855087 201.577388,29.2298419 Z M236.211831,17.3148203 L240.449088,17.3148203 L240.449088,28.070934 L240.557736,28.070934 L248.996034,17.3148203 L253.667881,17.3148203 L246.388491,26.5498674 L254.464631,41 L249.792783,41 L243.889596,29.8455117 L240.449088,34.0827686 L240.449088,41 L236.211831,41 L236.211831,17.3148203 Z M271.570592,35.096813 C272.463922,35.8935662 273.47192,36.5394094 274.594618,37.0343621 C275.717315,37.5293148 276.858104,37.7767875 278.017018,37.7767875 C279.46566,37.7767875 280.564197,37.4991352 281.312662,36.9438224 C282.061127,36.3885096 282.435354,35.6521276 282.435354,34.7346543 C282.435354,34.2517736 282.338779,33.8413312 282.145627,33.5033147 C281.952475,33.1652982 281.680858,32.8695382 281.33077,32.6160258 C280.980681,32.3625135 280.558167,32.1271127 280.063214,31.9098163 C279.568262,31.69252 279.031065,31.475227 278.451608,31.2579307 L275.228395,29.8455117 C274.600651,29.6040713 273.984987,29.3022754 273.381386,28.9401149 C272.777785,28.5779544 272.234553,28.1433683 271.751672,27.6363436 C271.268791,27.1293188 270.882492,26.5377988 270.592764,25.8617659 C270.303036,25.1857329 270.158174,24.4131354 270.158174,23.5439501 C270.158174,22.6023328 270.363395,21.7271246 270.773843,20.9182995 C271.184292,20.1094743 271.751668,19.4032719 272.475989,18.799671 C273.20031,18.1960701 274.063447,17.7252685 275.065424,17.387252 C276.067401,17.0492355 277.171975,16.8802298 278.379176,16.8802298 C279.827818,16.8802298 281.210044,17.1518462 282.525893,17.6950869 C283.841743,18.2383277 284.994604,18.9686738 285.984509,19.8861471 L283.811557,22.5661216 C283.014804,21.9383767 282.181847,21.4434314 281.312662,21.0812709 C280.443477,20.7191104 279.465658,20.5380328 278.379176,20.5380328 C277.14783,20.5380328 276.176048,20.7855055 275.463799,21.2804582 C274.75155,21.7754109 274.39543,22.4574696 274.39543,23.3266549 C274.39543,23.7853916 274.504077,24.1777262 274.721373,24.5036707 C274.93867,24.8296152 275.23443,25.1193392 275.608662,25.3728516 C275.982895,25.626364 276.417481,25.8496929 276.912433,26.0428452 C277.407386,26.2359975 277.920439,26.4412187 278.451608,26.658515 L281.566173,27.9985023 C282.314638,28.2882307 283.002733,28.6262421 283.630478,29.0125467 C284.258222,29.3988512 284.801455,29.8455092 285.260192,30.3525339 C285.718928,30.8595586 286.075048,31.4450427 286.32856,32.1090036 C286.582072,32.7729646 286.708827,33.5395262 286.708827,34.4087115 C286.708827,35.3744728 286.509641,36.2798606 286.111265,37.1249018 C285.712888,37.969943 285.139476,38.7123609 284.391011,39.3521779 C283.642546,39.9919948 282.725086,40.4990119 281.638605,40.8732445 C280.552123,41.247477 279.320796,41.4345905 277.944586,41.4345905 C276.278647,41.4345905 274.685165,41.1327945 273.164091,40.5291937 C271.643017,39.9255928 270.290971,39.0684924 269.107913,37.9578668 L271.570592,35.096813 Z M309.573112,20.8639757 L302.112643,20.8639757 L302.112643,17.3148203 L321.234623,17.3148203 L321.234623,20.8639757 L313.774153,20.8639757 L313.774153,41 L309.573112,41 L309.573112,20.8639757 Z M348.408597,31.2941465 L347.575632,28.3968769 C347.237615,27.141387 346.887532,25.8497006 346.525371,24.5217786 C346.163211,23.1938567 345.813128,21.8780266 345.475111,20.5742487 L345.330248,20.5742487 C344.992231,21.9021706 344.648184,23.2240367 344.298095,24.5398866 C343.948007,25.8557365 343.591888,27.141387 343.229727,28.3968769 L342.396762,31.2941465 L348.408597,31.2941465 Z M349.350209,34.5897908 L341.455149,34.5897908 L339.60814,41 L335.334667,41 L343.012432,17.3148203 L347.93779,17.3148203 L355.615555,41 L351.161003,41 L349.350209,34.5897908 Z M370.584781,29.2298419 C370.584781,27.2983191 370.862433,25.5660106 371.417746,24.0328644 C371.973058,22.4997182 372.73962,21.2019958 373.717453,20.1396582 C374.695287,19.0773207 375.854183,18.2685077 377.194177,17.7131949 C378.534171,17.1578821 379.988827,16.8802298 381.55819,16.8802298 C383.006832,16.8802298 384.298518,17.1820257 385.433288,17.7856266 C386.568057,18.3892275 387.521732,19.0773222 388.294342,19.8499313 L385.94031,22.457474 C385.360853,21.8780172 384.71501,21.4132515 384.002761,21.0631629 C383.290512,20.7130744 382.475663,20.5380328 381.55819,20.5380328 C380.568284,20.5380328 379.662896,20.7372181 378.841999,21.1355947 C378.021102,21.5339713 377.320936,22.1013476 376.741479,22.8377406 C376.162022,23.5741337 375.709328,24.4734855 375.383384,25.535823 C375.057439,26.5981606 374.894469,27.7932724 374.894469,29.1211943 C374.894469,30.4732602 375.057439,31.6864798 375.383384,32.7608893 C375.709328,33.8352989 376.168058,34.7406866 376.759587,35.4770797 C377.351115,36.2134727 378.063354,36.780849 378.896323,37.1792256 C379.729292,37.5776022 380.652788,37.7767875 381.666837,37.7767875 C382.632599,37.7767875 383.495735,37.5715663 384.256272,37.1611177 C385.016809,36.7506691 385.735083,36.1712209 386.411116,35.4227558 L388.728932,37.9940827 C387.763171,39.1047083 386.676705,39.9557728 385.469504,40.5473016 C384.262302,41.1388305 382.910256,41.4345905 381.413326,41.4345905 C379.892252,41.4345905 378.473811,41.1690101 377.157961,40.6378413 C375.842111,40.1066725 374.695287,39.3220032 373.717453,38.2838097 C372.73962,37.2456162 371.973058,35.9660015 371.417746,34.4449273 C370.862433,32.9238531 370.584781,31.1855087 370.584781,29.2298419 Z M405.219224,17.3148203 L409.456481,17.3148203 L409.456481,28.070934 L409.565129,28.070934 L418.003427,17.3148203 L422.675274,17.3148203 L415.395884,26.5498674 L423.472023,41 L418.800176,41 L412.896989,29.8455117 L409.456481,34.0827686 L409.456481,41 L405.219224,41 L405.219224,17.3148203 Z" id="BLOCKSTACK" fill="#FFFFFF"></path>
            <g id="bsk-bug-rev" transform="translate(11.000000, 5.000000)">
                <g id="stereocopy" transform="translate(0.000000, 0.820513)">
                    <path d="M11.9014978,14.3783141 C15.849794,14.3783141 19.0505204,11.1880227 19.0505204,7.25259878 C19.0505204,3.31717486 15.849794,0.126883426 11.9014978,0.126883426 C7.95320169,0.126883426 4.75247525,3.31717486 4.75247525,7.25259878 C4.75247525,11.1880227 7.95320169,14.3783141 11.9014978,14.3783141 Z M40.4975882,14.3783141 C44.4458844,14.3783141 47.6466108,11.1880227 47.6466108,7.25259878 C47.6466108,3.31717486 44.4458844,0.126883426 40.4975882,0.126883426 C36.5492921,0.126883426 33.3485656,3.31717486 33.3485656,7.25259878 C33.3485656,11.1880227 36.5492921,14.3783141 40.4975882,14.3783141 Z M40.4975882,42.8811756 C44.4458844,42.8811756 47.6466108,39.6908841 47.6466108,35.7554602 C47.6466108,31.8200363 44.4458844,28.6297449 40.4975882,28.6297449 C36.5492921,28.6297449 33.3485656,31.8200363 33.3485656,35.7554602 C33.3485656,39.6908841 36.5492921,42.8811756 40.4975882,42.8811756 Z M11.9014978,42.8811756 C15.849794,42.8811756 19.0505204,39.6908841 19.0505204,35.7554602 C19.0505204,31.8200363 15.849794,28.6297449 11.9014978,28.6297449 C7.95320169,28.6297449 4.75247525,31.8200363 4.75247525,35.7554602 C4.75247525,39.6908841 7.95320169,42.8811756 11.9014978,42.8811756 Z" id="4dots-electric-blue" fill="#2C96FF"></path>
                    <path d="M7.14902259,16.2731066 C11.0973187,16.2731066 14.2980452,13.0828152 14.2980452,9.14739128 C14.2980452,5.21196735 11.0973187,2.02167592 7.14902259,2.02167592 C3.20072644,2.02167592 0,5.21196735 0,9.14739128 C0,13.0828152 3.20072644,16.2731066 7.14902259,16.2731066 Z M35.745113,16.2731066 C39.6934091,16.2731066 42.8941356,13.0828152 42.8941356,9.14739128 C42.8941356,5.21196735 39.6934091,2.02167592 35.745113,2.02167592 C31.7968168,2.02167592 28.5960904,5.21196735 28.5960904,9.14739128 C28.5960904,13.0828152 31.7968168,16.2731066 35.745113,16.2731066 Z M35.745113,44.7759681 C39.6934091,44.7759681 42.8941356,41.5856766 42.8941356,37.6502527 C42.8941356,33.7148288 39.6934091,30.5245373 35.745113,30.5245373 C31.7968168,30.5245373 28.5960904,33.7148288 28.5960904,37.6502527 C28.5960904,41.5856766 31.7968168,44.7759681 35.745113,44.7759681 Z M7.14902259,44.7759681 C11.0973187,44.7759681 14.2980452,41.5856766 14.2980452,37.6502527 C14.2980452,33.7148288 11.0973187,30.5245373 7.14902259,30.5245373 C3.20072644,30.5245373 0,33.7148288 0,37.6502527 C0,41.5856766 3.20072644,44.7759681 7.14902259,44.7759681 Z" id="4dots-magenta" fill="#E91E63"></path>
                </g>
                <path d="M9.52526022,14.2514307 C13.4735564,14.2514307 16.6742828,11.0611393 16.6742828,7.12571536 C16.6742828,3.19029143 13.4735564,0 9.52526022,0 C5.57696406,0 2.37623762,3.19029143 2.37623762,7.12571536 C2.37623762,11.0611393 5.57696406,14.2514307 9.52526022,14.2514307 Z M38.1213506,14.2514307 C42.0696468,14.2514307 45.2703732,11.0611393 45.2703732,7.12571536 C45.2703732,3.19029143 42.0696468,0 38.1213506,0 C34.1730544,0 30.972328,3.19029143 30.972328,7.12571536 C30.972328,11.0611393 34.1730544,14.2514307 38.1213506,14.2514307 Z M38.1213506,42.7542921 C42.0696468,42.7542921 45.2703732,39.5640007 45.2703732,35.6285768 C45.2703732,31.6931529 42.0696468,28.5028614 38.1213506,28.5028614 C34.1730544,28.5028614 30.972328,31.6931529 30.972328,35.6285768 C30.972328,39.5640007 34.1730544,42.7542921 38.1213506,42.7542921 Z M9.52526022,42.7542921 C13.4735564,42.7542921 16.6742828,39.5640007 16.6742828,35.6285768 C16.6742828,31.6931529 13.4735564,28.5028614 9.52526022,28.5028614 C5.57696406,28.5028614 2.37623762,31.6931529 2.37623762,35.6285768 C2.37623762,39.5640007 5.57696406,42.7542921 9.52526022,42.7542921 Z" id="4dots-rev" fill="#FFFFFF"></path>
            </g>
        </g>
    </g>
</svg>